<?xml version="1.0" encoding="UTF-8"?>
<svg fill="none" aria-hidden="true" data-testid="indeed-design-system-illustrations-spot" viewBox="0 0 113 83" xmlns="http://www.w3.org/2000/svg">
<defs>
<linearGradient id="b" x1="101.63" x2="115.3" y1="24.191" y2="9.204" gradientUnits="userSpaceOnUse">
<stop stop-color="#F39E78" offset="0"/>
<stop stop-color="#F7C8B8" offset="1"/>
</linearGradient>
<linearGradient id="c" x1="59.978" x2="19.422" y1="-24.696" y2="46.653" gradientUnits="userSpaceOnUse">
<stop stop-color="#409EC8" offset="0"/>
<stop stop-color="#1F5F7B" offset=".449"/>
<stop stop-color="#1D465C" offset="1"/>
</linearGradient>
<filter id="d" x="0%" y="0%">
<feTurbulence baseFrequency="2.5" numOctaves="4" result="noise" seed="14"/>
<feComponentTransfer in="noise" result="opacity">
<feFuncA slope="0.6" type="linear"/>
</feComponentTransfer>
<feBlend in="opacity" in2="SourceGraphic" mode="overlay" result="blend"/>
</filter>
<filter id="e" x="19.021" y=".666" width="68.853" height="69.21" color-interpolation-filters="sRGB" filterUnits="userSpaceOnUse">
<feFlood flood-opacity="0" result="BackgroundImageFix"/>
<feColorMatrix in="SourceAlpha" result="hardAlpha" values="0 0 0 0 0 0 0 0 0 0 0 0 0 0 0 0 0 0 127 0"/>
<feOffset dx="0.5" dy="0.5"/>
<feGaussianBlur stdDeviation="0.25"/>
<feColorMatrix values="0 0 0 0 0 0 0 0 0 0 0 0 0 0 0 0 0 0 0.3 0"/>
<feBlend in2="BackgroundImageFix" result="effect1_dropShadow_4373_1222"/>
<feBlend in="SourceGraphic" in2="effect1_dropShadow_4373_1222" result="shape"/>
<feColorMatrix in="SourceAlpha" result="hardAlpha" values="0 0 0 0 0 0 0 0 0 0 0 0 0 0 0 0 0 0 127 0"/>
<feOffset dx="1" dy="1"/>
<feGaussianBlur stdDeviation="0.5"/>
<feComposite in2="hardAlpha" k2="-1" k3="1" operator="arithmetic"/>
<feColorMatrix values="0 0 0 0 0 0 0 0 0 0 0 0 0 0 0 0 0 0 0.3 0"/>
<feBlend in2="shape" result="effect2_innerShadow_4373_1222"/>
</filter>
<clipPath id="a">
<path d="m73.215 8.022a6.734 6.734 0 0 0-12.817-3.456c-9.733 0.153-18.594 6.252-22.075 15.54-7.646-2.238-15.765-3.47-24.3-3.296 0 0-12.44 56.932-14.023 65.291h112.41s-9.668-16.405-26.653-32.771c0.848 0.1 1.711 0.152 2.586 0.154 12.276 0.028 22.251-9.901 22.279-22.177s-9.901-22.251-22.178-22.279a22.129 22.129 0 0 0-13.242 4.336 23.86 23.86 0 0 0-1.989-1.342z" fill="#fff" xmlns="http://www.w3.org/2000/svg"/>
</clipPath>
<pattern id="f" width="50" height="40" patternTransform="scale(.3)" patternUnits="userSpaceOnUse">
<path d="M0 0h50v40H0z" filter="url(#d)"/>
</pattern>
</defs>
<g clip-path="url(#a)">
<circle transform="rotate(.13 88.396 27.256)" cx="88.396" cy="27.256" r="22.228" fill="url(#b)"/>
<path d="M14.023 16.81c59.2-1.212 98.389 65.291 98.389 65.291H0c1.583-8.359 14.023-65.29 14.023-65.29z" fill="#F5CB9D"/>
<g filter="url(#e)">
<path d="M73.215 8.023a6.734 6.734 0 0 0-12.817-3.456c-10.69.167-20.327 7.508-22.941 18.368l-.079.335-.002-.001-4.671 19.404-13.315 8.82a.821.821 0 0 0 .262 1.483L85.86 68.851a.821.821 0 0 0 .906-1.202L79.25 54.34l4.786-19.884h-.002l.083-.334c2.504-10.401-2.2-20.847-10.902-26.1z" fill="url(#c)"/>
</g>
<path d="m37.864 57.342 25.004 5.996c-2.137 6.19-8.66 9.878-15.172 8.342-6.543-1.544-10.74-7.81-9.832-14.338z" fill="#fff"/>
</g>
<rect width="100%" height="100%" clip-path="url(#a)" fill="url(#f)" style="mix-blend-mode:overlay"/>
</svg>
